<svg width="62" height="30">
  <g fill="#101330" transform="translate(-10, 10)">
		<path fill-rule="evenodd" clip-rule="evenodd" d="M26.2268 8.04838C26.2268 9.84684 24.7517 11.31 22.9385 11.31C21.1254 11.31 19.6502 9.84684 19.6502 8.04838C19.6502 6.25005 21.1254 4.78696 22.9385 4.78696C24.7517 4.78696 26.2268 6.25005 26.2268 8.04838ZM22.9385 3.24182C21.7088 3.24182 20.5492 3.69459 19.6502 4.52118V3.23077H18.0923V16.1538H19.6502V11.5758C20.5492 12.4024 21.7088 12.8551 22.9385 12.8551C25.6107 12.8551 27.7846 10.6988 27.7846 8.04838C27.7846 5.39808 25.6107 3.24182 22.9385 3.24182Z" fill="#3A3C45"/>
		<path fill-rule="evenodd" clip-rule="evenodd" d="M30.1035 7.29797C30.4642 5.83736 31.8078 4.78861 33.3404 4.78861C34.8532 4.78861 36.1203 5.81499 36.4581 7.29797H30.1035ZM33.3404 3.23077C30.6333 3.23077 28.4308 5.40476 28.4308 8.07685C28.4308 10.7491 30.6333 12.9231 33.3404 12.9231C34.8566 12.9231 36.2483 12.3628 37.1586 11.386L37.6928 10.8127L36.5312 9.75806L35.9971 10.3314C35.3937 10.9788 34.4005 11.3652 33.3404 11.3652C31.8078 11.3652 30.4642 10.3164 30.1035 8.8558H38.1231V8.07685C38.1231 5.35938 36.0222 3.23077 33.3404 3.23077Z" fill="#3A3C45"/>
		<path fill-rule="evenodd" clip-rule="evenodd" d="M43.9385 3.23077C42.836 3.23077 41.7862 3.64788 40.9595 4.40985V3.23077H39.4154V12.9231H40.9595V7.9769C40.9595 6.21212 42.2958 4.77646 43.9385 4.77646C45.581 4.77646 46.9174 6.21212 46.9174 7.9769V12.9231H48.4615V7.9769C48.4615 5.35985 46.4325 3.23077 43.9385 3.23077Z" fill="#3A3C45"/>
		<path fill-rule="evenodd" clip-rule="evenodd" d="M57.2421 8.10546C57.2421 9.90379 55.767 11.3669 53.9539 11.3669C52.1406 11.3669 50.6655 9.90379 50.6655 8.10546C50.6655 6.30699 52.1406 4.84381 53.9539 4.84381C55.767 4.84381 57.2421 6.30699 57.2421 8.10546ZM57.3313 0H57.2421V4.57803C56.3431 3.75145 55.1836 3.29867 53.9539 3.29867C51.2817 3.29867 49.1077 5.45493 49.1077 8.10546C49.1077 10.7558 51.2817 12.912 53.9539 12.912C55.1836 12.912 56.3431 12.4593 57.2421 11.6327V12.9231H58.8V0H57.3313Z" fill="#3A3C45"/>
		<path fill-rule="evenodd" clip-rule="evenodd" d="M68.2264 8.07699C68.2264 9.89012 66.7516 11.3652 64.9384 11.3652C63.1253 11.3652 61.6501 9.89012 61.6501 8.07699C61.6501 6.26379 63.1253 4.7886 64.9384 4.7886C66.7516 4.7886 68.2264 6.26379 68.2264 8.07699ZM64.9384 3.23077C62.2663 3.23077 60.0923 5.40474 60.0923 8.07699C60.0923 10.7491 62.2663 12.9231 64.9384 12.9231C67.6106 12.9231 69.7846 10.7491 69.7846 8.07699C69.7846 5.40474 67.6106 3.23077 64.9384 3.23077Z" fill="#3A3C45"/>
	</g>
</svg>
